<svg preserveAspectRatio="xMinYMid slice" version="1.1" id="minilogo" xmlns:sketch="http://www.bohemiancoding.com/sketch/ns" xmlns="http://www.w3.org/2000/svg" xmlns:xlink="http://www.w3.org/1999/xlink" x="0px" y="0px" viewBox="638.4 706.3 495.4 137.1" style="enable-background:new 638.4 706.3 495.4 137.1;" xml:space="preserve">
	<g sketch:type="MSPage">
		<g transform="translate(-1.000000, -0.013158)" sketch:type="MSLayerGroup">
			<path sketch:type="MSShapeGroup" d="M1013.7,800.5l-55-70.1H944v102.7h17.9v-69.6l54.2,69.6h15.5V730.3h-17.9V800.5L1013.7,800.5z
				"></path>
			<path sketch:type="MSShapeGroup" d="M639.4,747.7h33.8v85.4H692v-85.4h33.8v-17.3h-86.4L639.4,747.7L639.4,747.7z"></path>
			<path sketch:type="MSShapeGroup" d="M814.1,773H764v-42.7h-18.7V833H764v-42.7h50.1V833h18.7V730.3h-18.7V773L814.1,773z"></path>
			<path id="transformTarget" sketch:type="MSShapeGroup" d="M853.1,843.4C853.1,843.4,887.1,843.4,887.1,843.4C887.1,843.4,923,843.4,923,843.4C923,843.4,923,828.3,923,828.3C923,828.3,887.1,828.3,887.1,828.3C887.1,828.3,853.1,828.3,853.1,828.3C853.1,828.3,853.1,843.4,853.1,843.4C853.1,843.4,853.1,843.4,853.1,843.4"></path>
			<path sketch:type="MSShapeGroup" d="M1134.8,731.5H1111l-37.7,43.2v-44.4h-18.7V833h18.7v-44.4l37.7,43.3h23.8l-43.8-50.2
				L1134.8,731.5L1134.8,731.5z"></path>
		</g>
	</g>				
<desc>Created with Snap</desc><defs></defs></svg>
