<svg width="37.259mm" xmlns:cc="http://creativecommons.org/ns#" version="1.1" viewBox="0 0 132.02246 49.999747" xmlns:rdf="http://www.w3.org/1999/02/22-rdf-syntax-ns#" xmlns="http://www.w3.org/2000/svg" xmlns:dc="http://purl.org/dc/elements/1.1/" height="14.111mm">
<g transform="matrix(.63015 0 0 .63015 .00040960 -.00010073)">
<path d="m203.7 76.041c-.745 0-1.2788-.265-1.2788-1.01 0-1.6 1.9725-6.3438 1.9725-8.9 0-5.1138-4.7962-6.7125-9.0588-6.98l.10625-.10625c8.4188 0 14.068-4.1025 14.068-10.23 0-6.66-5.5962-7.7262-9.6975-7.7262h-18.92l-10.364 37.511h14.329l.26875-1.0125h-3.28l4.7138-17.245c-.6325-.26-1.22-.74125-1.6538-1.4488-1.0612-1.73-.82875-3.7512.89625-4.7962.79125-.48 1.8062-.555 2.5762-.41l3.1662-11.585h3.0988c2.8762 0 4.3138 1.0112 4.3138 3.9425 0 3.995-2.235 9.2175-3.7812 10.761-1.195 1.195-2.4212 1.615-4.2975 1.7512-.15-.03875-.2975-.0875-.43125-.14875-.1425-.065-.26625-.145-.35875-.24-.165-.17125-.22625-.3925-.0925-.68.54625-1.1725-.1425-2.6225-1.6762-3.0438-1.4712-.405-2.7625.38625-3.1675 1.8562-.44 1.6.33625 2.9612 1.9375 3.4012.6075.1675 1.4.0225 1.89-.0475.145-.02.365-.0275.63875-.02875-.001.0025-.002.0038-.002.0063 0 0 1.265.0125 1.6375.0175 1.5762.09375 2.91.6125 2.91 3.0712 0 2.1838-2.2912 8.8988-2.2912 10.71 0 4.37 3.57 5.595 7.085 5.595 2.9862 0 5.7562-1.0662 8.6338-3.7838l-.64-.905c-.745.745-2.345 1.7038-3.25 1.7038"/>
<path d="m110.17 37.19h14.244l.2975-1.005h-3.31l4.91-17.828h1.4312c4.3912 0 5.3962 1.5875 5.3962 4.7075 0 .68875-.0538 1.4288-.2125 2.2225h1.2175l3.8088-13.595h-1.1638c-2.2225 4.8662-5.185 5.66-8.835 5.66h-1.3688l4.445-16.158h3.5c6.7712 0 9.7338 2.3275 9.7338 11.004h1.005l3.3675-12.009h-31.616l-.27875 1.005h3.3375l-9.9088 35.995z"/>
<path d="m8.1234 37.19h5.0438s10.575-20.634 10.85-21.031c.6075-.87875 1.155-1.5962 1.155-1.5962.4975-.5575.99625-1.1875 1.175-1.9138.47-1.9138-.4925-3.5038-2.4038-3.9738-1.7562-.43125-3.3238.44875-3.7562 2.2088-.44875 1.8312.65375 3.3838 2.185 3.4962.8075.0575.72875.70125.4875 1.2825l-5.1725 9.9688h-.10625l-1.9962-24.435h2.68l.2625-1h-15.921l-.26375 1h2.7338l3.0475 35.994z"/>
<path d="m24.173 7.9491c1.895.31875 3.3162 1.9888 3.2612 3.965-.0375 1.3688-1.795 3.09-2.5575 4.4962l1.73 20.779h4.7812l14.924-29.057c1.6812-3.2588 3.3112-6.9362 7.5662-6.9362h.31625l.26125-1h-12.769l-.2625 1c2.6288 0 3.9412 1.68 3.9412 4.0462 0 1.4188-.47125 2.89-1.3125 4.5188l-7.935 15.503h-.10625l-1.9962-24.068h2.68l.2625-1h-15.659l-.2625 1h2.5738l.5625 6.7538z"/>
<path d="m170.99 66.877c-3.6238 7.8338-10.284 10.71-16.891 10.71h-3.7288l4.955-17.955h3.835c3.73 0 5.0625 2.2375 5.0625 4.7425 0 .69125-.0525 1.4388-.21125 2.2375h1.225l3.8362-13.695h-1.1738c-2.2375 4.9038-5.22 5.7025-8.8988 5.7025h-3.4088l4.53-16.518h4.9488c6.82 0 9.8025 2.3438 9.8025 11.082h1.0125l3.33-12.095h-33.1l-.26875 1.0125h3.2962l-10.079 36.498h29.79l3.23-11.722h-1.0938z"/>
<path d="m129.91 58.699c-.38875-.055-.79375-.0975-1.1888-.0775-.27625.01375-.5475.0575-.805.15-1.6838.59875-2.4088 2.1212-1.81 3.805.55125 1.545 2 2.2925 3.5475 1.74 1.6125-.5725 2.2375-2.1838 1.5575-3.3988-.175-.31375-.0275-.49.16625-.6025.2375.12 1.1488.77375.9875 1.915-.135.96125-.73625 1.69-1.4825 2.1825l-1.75 6.6212c-.90625 3.3038-2.6625 6.98-6.6612 6.98-3.6225 0-5.7012-2.1838-5.7012-5.9662 0-5.5962 2.88-17.318 6.6088-25.416 1.49-3.3038 3.8338-4.9562 6.925-4.9562 6.4462 0 9.2188 5.0638 9.2188 10.498 0 .95875-.055 1.8638-.16 2.8225h1.1725l3.9425-13.906h-1.1725c-.74625 1.1725-1.5975 1.76-3.305 1.76-2.1838 0-4.475-2.505-10.655-2.505-9.0212 0-15.822 4.7775-19.64 11.035.24 1.2375.365 2.5975.365 4.0962 0 4.9412-1.1712 9.1675-3.2575 12.609 1.9625 7.3088 8.5812 11.261 16.248 11.261 3.4975 0 6.8-.67375 9.7062-1.8475 3.1312-1.0425 3.8012 1.1038 3.8012 1.1038h.81625l5.515-19.902h-12.989z"/>
<path d="m78.9 36.185h-1.6838l-.265 1.005h31.496l3.2425-11.796h-1.1638c-.17375.40375-.35625.79625-.54875 1.18-2.9488 5.905-8.0412 9.4312-14.612 9.6025-.1675.005-5.5088.0087-5.5088.0087l9.6712-34.962h3.3225l.265-1.005h-17.602l-.26375 1.005h3.2788l-9.6275 34.962z"/>
<path d="m59.851 6.4462c1.509-3.1712 3.847-5.1462 7.227-5.1462 2.3912 0 5.1475 1.8188 5.1475 5.51 0 5.6163-2.34 13.986-5.2512 21.838-2.4438 6.5512-4.94 8.11-7.955 8.11-3.535 0-5.5638-2.13-5.5638-5.8225 0-5.4588 3.5362-18.405 6.395-24.489m-16.377 16.065c0 9.8788 7.4875 15.545 16.222 15.545 13.31 0 22.512-10.658 22.512-22.512 0-8.9425-6.343-15.545-15.806-15.545-15.128-.0000034-22.928 11.854-22.928 22.512"/>
<path d="m56.65 63.104 1.2725-4.5962c-4.39 3.23-9.1838-1.655-8.63-4.4912 1.0812-4.5612 4.0038-3.6525 3.1075-2.2112 1.665-.4475 1.3975-1.7188.88125-2.3888-.4125-.535-1.305-.7425-1.6388-.7875.6875.07125 3.8612.30375 5.6175-1.24.285.16625 3.0925.1825 3.3675-1.8062-.6625.57125-.635-.14625-1.2212-.04875 1.095-1.0862.91625-2.8025-.16875-4.3425-.33625 1.6-1.7012 2.0875-3.5562 1.16s-8.2475-2.9725-11.649.3525c-.825-.50375-.1225-1.245.1975-1.6938-2.0825.41625-2.5625.60875-3.37 2.9625.14625-1.5138-1.1712-1.6112-.87875-2.6362-.42125.21125-1.68.24125-2.1412 1.2538 2.5038 2.8875 3.6675 9.5038-.90625 13.506.27.305.52625.6375.75375 1.005-.38625-.155-2.245-.44-3.4162 1.4638 1.7575-.63375 2.245 1.1975 3.945 2.2025 1.7012 1.005 4.5862 1.0638 5.5138 1.0638-.04.815-1.7125 1.435-3.9225.5375.92375 2.7238 4.26 4.0725 7.1538 1.2238-.0775.61875.385 1.74 2.6012 1.8062-1.1212-1.5262 3.8938-.28625 7.0875-2.295"/>
<path d="m46.649 65.133c-.13875-.15875-.22125-.29-.2725-.37875l-3.6938 3.7212c-5.6512 5.755-8.93 9.1112-13.458 9.1112l-.28125 1.0125h12.984l.2975-1.0125c-1.7588 0-4.1412-.58625-3.145-3.1425.3525-.9075.9925-1.8662 3.365-4.265l4.6338-4.6562c-.1775-.13-.31875-.26375-.43-.39"/>
<path d="m74.202 41.089h-4.3375l-17.005 17.134c.34625.18375.70375.3275 1.065.42375l6.75-6.7662h.1075l-7.6338 25.708h-3.1438l-.3075 1.0125h15.824l.27375-1.0125h-1.6462l10.054-36.499z"/>
<path d="m21.014 75.776c-2.03 1.6825-4.3812 1.8012-7.0962 1.81-.20875.0012-2.4162.0012-2.6288.0012l4.69-17.065c-1.0012-.10875-1.9925-.75875-2.5638-1.9138-.9-1.82-.4075-3.785 1.4062-4.6712 1.0288-.50125 2.08-.49 2.99-.08625l3.2288-11.749h3.5438c2.61 0 4.1562.9575 4.1562 4.3675 0 3.7838-1.9712 8.3138-3.6775 10.07-1.3562 1.4038-3.06 1.9212-5.3025 2.0462-.20375-.0425-.4125-.10375-.595-.1875-.165-.07625-.30375-.17125-.39875-.28875-.1325-.16375-.175-.37-.0525-.63125.54625-1.1725-.1425-2.6225-1.6762-3.0438-1.4712-.405-2.7638.38625-3.1675 1.8562-.44 1.6.33625 2.9612 1.9375 3.4012.60625.1675 1.2975.09 1.9125-.0475 0 0 .15125-.0038.3925-.01.0375-.0012 1.675-.0025 1.675-.0025 3.0375 0 5.3275 1.7575 5.3275 5.115 0 5.1675-1.9175 9.2175-4.1012 11.029m14.971-8.3662c0-3.835-2.485-6.2912-6.11-7.4838-.379-.124-.771-.234-1.174-.332-.8825-.2125-1.8162-.36125-2.7862-.44375v-.10625c1.3775-.03125 2.7112-.19375 3.9675-.48125 5.2125-1.1912 9.0875-4.5325 9.0875-9.6412 0-3.79-1.8712-5.7488-4.325-6.7612-2.3775-.98-5.3038-1.0725-7.6112-1.0725h-19.931l-.2775 1.0138h3.3l-10.126 36.498h19.042c13.428 0 16.944-6.2875 16.944-11.19"/>
<path d="m95.465 64.16c-3.944 11.562-7.193 13.427-13.749 13.427h-3.2488l9.75-35.485h4.6362c4.1025 0 5.9138 2.3975 5.9138 5.9138 0 3.9438-1.3312 10.444-3.3025 16.145m-2.8775-23.071h-16.741l-.2625 1.0125h1.6588l-10.069 36.498h1.0738 16.24c14.174 0 24.51-8.4175 24.51-23.124 0-10.496-5.9675-14.386-16.41-14.386"/>
<g fill="#0081c6">
<path d="m144.84 20.24c0 .52625.0213 1.2825.12875 1.8988l.095.4125c.01.03375.0175.07.0275.10125-.001 0-.002.0012-.004.0012l.285 1.2438c1 3.5288 2.5138 6.9512 4.545 10.022l.495.68375c.001-.0012.002-.0012.004-.0038 1.1512 1.5475 3.1312 2.8812 5.6175 2.8812 2.23 0 4.8562-1.4062 6.91-3.7088l-.45-.540c-.505.53875-1.8712 1.44-2.5912 1.44-2.1762 0-4.1525-2.455-5.3575-5.0388h-.002s-.44375-.755-.64125-1.2562c-1.0212-2.2912-2.0388-4.5875-2.7438-6.9862h.001c-.065-.19375-.14-.42625-.21-.65-.002 0-1.0888-3.4538-1.0888-5.2538 0-1.5462.93625-2.4825 2.6275-2.4825 1.7638 0 2.8438 1.3675 2.8438 3.0238 0 2.0188-1.5888 3.5062-3.3538 4.3188.11125.26875.34875.63625.34125.635 2.1038-.87125 3.9112-2.4012 3.9112-4.8112 0-2.6262-1.69-4.065-4.39-4.065-4.21 0-6.9812 4.3188-6.9812 8.1325"/>
<path d="m144.09 24.12s-.13125-.55625-.3075-.9925c-8.5225 3.0725-9.1612 8.0662-8.135 10.732 1.0262 2.6662 3.84 4.2312 8.5388 4.2312 2.7838 0 4.5412-1.1312 5.1412-2.0962-.3875-.4875-.745-1.0338-.935-1.4512-3.6775.835-5.67-5.875-5.54-7.6938.13-1.8175 1.2375-2.73 1.2375-2.73"/>
<path d="m154.46 27.768c-.025.03375.21625.56625.3875.71.14875-.33.45375-.91.58625-1.1888.19-.29375.3725-.4375.55625-.47875.38625-.08875.53375.12875.67625.75375.44375 1.9688 1.935 3.1975 4.1438 2.6975 2.1188-.47875 3.2112-2.3388 2.7325-4.455-.52125-2.305-2.4088-3.495-4.7138-2.9738-.925.20875-1.6562.56625-2.3512 1.3538v-.0025c-.005.0063-.01.01375-.015.02-.4775.5475-.93875 1.3-1.4338 2.3575-.1875.37375-.3775.775-.56875 1.2062"/>
</g>
</g>
</svg>
